<svg width="158" height="66" viewBox="0 0 158 66" fill="none" xmlns="http://www.w3.org/2000/svg">
<ellipse cx="5.50008" cy="12.4996" rx="3.5" ry="6.5" transform="rotate(-15 5.50008 12.4996)" fill="white"/>
<ellipse cx="13.7901" cy="6.65163" rx="3.5" ry="6.5" transform="rotate(-2.58957 13.7901 6.65163)" fill="white"/>
<ellipse cx="24.4471" cy="6.95633" rx="3.5" ry="6.5" transform="rotate(8.73942 24.4471 6.95633)" fill="white"/>
<ellipse cx="32.7263" cy="13.0675" rx="3.5" ry="6.5" transform="rotate(11.5064 32.7263 13.0675)" fill="white"/>
<path d="M31.0002 31C31.5002 39 30 49 18 43.5C5.99996 49 4.00005 38.5 5.00018 31C6.06698 23 10.5392 17 18.0002 17C25.4611 17 30.5002 23 31.0002 31Z" fill="white"/>
<ellipse cx="18" cy="30" rx="3.5" ry="6" fill="#E13806"/>
<path d="M35.5092 41V27.3636H39.1758V29.7429H39.3178C39.5664 28.8965 39.9837 28.2573 40.5696 27.8253C41.1555 27.3873 41.8303 27.1683 42.5938 27.1683C42.7831 27.1683 42.9873 27.1802 43.2063 27.2038C43.4253 27.2275 43.6177 27.2601 43.7834 27.3015V30.6573C43.6058 30.604 43.3602 30.5567 43.0465 30.5153C42.7328 30.4738 42.4458 30.4531 42.1854 30.4531C41.629 30.4531 41.1319 30.5745 40.6939 30.8171C40.2618 31.0539 39.9186 31.3853 39.6641 31.8114C39.4155 32.2376 39.2912 32.7288 39.2912 33.2852V41H35.5092ZM53.6755 27.3636V30.2045H45.4635V27.3636H53.6755ZM47.3279 24.0966H51.1098V36.8097C51.1098 37.1589 51.1631 37.4311 51.2696 37.6264C51.3762 37.8158 51.5241 37.949 51.7135 38.0259C51.9088 38.1029 52.1337 38.1413 52.3882 38.1413C52.5658 38.1413 52.7433 38.1265 52.9209 38.0969C53.0985 38.0614 53.2346 38.0348 53.3293 38.017L53.9241 40.8313C53.7347 40.8905 53.4684 40.9586 53.1251 41.0355C52.7818 41.1184 52.3646 41.1687 51.8733 41.1864C50.9619 41.2219 50.1628 41.1006 49.4763 40.8224C48.7957 40.5443 48.266 40.1122 47.8872 39.5263C47.5084 38.9403 47.3219 38.2005 47.3279 37.3068V24.0966ZM60.214 33.1165V41H56.4321V22.8182H60.1075V29.7695H60.2673C60.5751 28.9646 61.0722 28.3343 61.7588 27.8786C62.4453 27.4169 63.3065 27.1861 64.3422 27.1861C65.2892 27.1861 66.1148 27.3932 66.8192 27.8075C67.5294 28.2159 68.0798 28.8048 68.4704 29.5742C68.867 30.3377 69.0623 31.2521 69.0564 32.3175V41H65.2744V32.9922C65.2803 32.1518 65.0673 31.4978 64.6352 31.0302C64.2091 30.5626 63.6113 30.3288 62.8419 30.3288C62.327 30.3288 61.8712 30.4383 61.4747 30.6573C61.0841 30.8763 60.7763 31.1959 60.5514 31.6161C60.3324 32.0304 60.22 32.5305 60.214 33.1165ZM78.1939 41.2663C76.8149 41.2663 75.6223 40.9734 74.6161 40.3874C73.6159 39.7956 72.8435 38.9729 72.299 37.9194C71.7545 36.86 71.4822 35.6319 71.4822 34.2351C71.4822 32.8265 71.7545 31.5954 72.299 30.5419C72.8435 29.4825 73.6159 28.6598 74.6161 28.0739C75.6223 27.482 76.8149 27.1861 78.1939 27.1861C79.5729 27.1861 80.7625 27.482 81.7628 28.0739C82.7689 28.6598 83.5443 29.4825 84.0888 30.5419C84.6333 31.5954 84.9055 32.8265 84.9055 34.2351C84.9055 35.6319 84.6333 36.86 84.0888 37.9194C83.5443 38.9729 82.7689 39.7956 81.7628 40.3874C80.7625 40.9734 79.5729 41.2663 78.1939 41.2663ZM78.2116 38.3366C78.839 38.3366 79.3628 38.1591 79.783 37.804C80.2032 37.4429 80.5199 36.9517 80.733 36.3303C80.9519 35.7088 81.0614 35.0015 81.0614 34.2085C81.0614 33.4154 80.9519 32.7081 80.733 32.0866C80.5199 31.4652 80.2032 30.974 79.783 30.6129C79.3628 30.2519 78.839 30.0714 78.2116 30.0714C77.5784 30.0714 77.0457 30.2519 76.6136 30.6129C76.1875 30.974 75.8649 31.4652 75.646 32.0866C75.4329 32.7081 75.3263 33.4154 75.3263 34.2085C75.3263 35.0015 75.4329 35.7088 75.646 36.3303C75.8649 36.9517 76.1875 37.4429 76.6136 37.804C77.0457 38.1591 77.5784 38.3366 78.2116 38.3366Z" fill="black"/>
<path d="M89.5803 41V22.8182H96.7536C98.1326 22.8182 99.3074 23.0816 100.278 23.6083C101.249 24.1291 101.989 24.8542 102.498 25.7834C103.012 26.7067 103.27 27.772 103.27 28.9794C103.27 30.1868 103.009 31.2521 102.489 32.1754C101.968 33.0987 101.213 33.8178 100.225 34.3327C99.2423 34.8477 98.0527 35.1051 96.6559 35.1051H92.0838V32.0245H96.0344C96.7743 32.0245 97.3839 31.8973 97.8633 31.6428C98.3486 31.3823 98.7096 31.0243 98.9464 30.5685C99.189 30.1069 99.3104 29.5772 99.3104 28.9794C99.3104 28.3757 99.189 27.849 98.9464 27.3991C98.7096 26.9434 98.3486 26.5913 97.8633 26.3427C97.378 26.0882 96.7624 25.9609 96.0167 25.9609H93.4244V41H89.5803ZM111.316 41.2663C109.913 41.2663 108.705 40.9822 107.693 40.4141C106.687 39.84 105.912 39.0291 105.367 37.9815C104.823 36.928 104.551 35.6822 104.551 34.244C104.551 32.8413 104.823 31.6102 105.367 30.5508C105.912 29.4914 106.678 28.6657 107.667 28.0739C108.661 27.482 109.827 27.1861 111.165 27.1861C112.064 27.1861 112.902 27.3311 113.677 27.6211C114.458 27.9052 115.139 28.3343 115.719 28.9084C116.305 29.4825 116.761 30.2045 117.086 31.0746C117.412 31.9387 117.574 32.9508 117.574 34.1108V35.1495H106.06V32.8058H114.014C114.014 32.2612 113.896 31.7789 113.659 31.3587C113.423 30.9384 113.094 30.61 112.674 30.3732C112.26 30.1306 111.777 30.0092 111.227 30.0092C110.653 30.0092 110.144 30.1424 109.7 30.4087C109.262 30.6692 108.919 31.0213 108.67 31.4652C108.421 31.9032 108.294 32.3915 108.288 32.93V35.1584C108.288 35.8331 108.412 36.4161 108.661 36.9073C108.916 37.3986 109.274 37.7773 109.735 38.0437C110.197 38.31 110.744 38.4432 111.378 38.4432C111.798 38.4432 112.183 38.384 112.532 38.2656C112.881 38.1473 113.18 37.9697 113.428 37.733C113.677 37.4962 113.866 37.2062 113.997 36.8629L117.494 37.0938C117.317 37.9342 116.953 38.6681 116.403 39.2955C115.858 39.9169 115.154 40.4022 114.29 40.7514C113.431 41.0947 112.44 41.2663 111.316 41.2663ZM126.921 27.3636V30.2045H118.709V27.3636H126.921ZM120.573 24.0966H124.355V36.8097C124.355 37.1589 124.408 37.4311 124.515 37.6264C124.621 37.8158 124.769 37.949 124.959 38.0259C125.154 38.1029 125.379 38.1413 125.633 38.1413C125.811 38.1413 125.988 38.1265 126.166 38.0969C126.344 38.0614 126.48 38.0348 126.574 38.017L127.169 40.8313C126.98 40.8905 126.713 40.9586 126.37 41.0355C126.027 41.1184 125.61 41.1687 125.118 41.1864C124.207 41.2219 123.408 41.1006 122.721 40.8224C122.041 40.5443 121.511 40.1122 121.132 39.5263C120.753 38.9403 120.567 38.2005 120.573 37.3068V24.0966ZM140.184 31.2521L136.722 31.4652C136.663 31.1693 136.535 30.9029 136.34 30.6662C136.145 30.4235 135.887 30.2312 135.568 30.0891C135.254 29.9412 134.878 29.8672 134.44 29.8672C133.854 29.8672 133.36 29.9915 132.958 30.2401C132.555 30.4827 132.354 30.8082 132.354 31.2166C132.354 31.5421 132.484 31.8174 132.745 32.0423C133.005 32.2672 133.452 32.4477 134.085 32.5838L136.553 33.081C137.879 33.3532 138.867 33.7912 139.518 34.3949C140.169 34.9986 140.495 35.7917 140.495 36.7741C140.495 37.6679 140.232 38.4521 139.705 39.1268C139.184 39.8015 138.468 40.3282 137.556 40.707C136.651 41.0799 135.606 41.2663 134.422 41.2663C132.617 41.2663 131.179 40.8905 130.108 40.1388C129.043 39.3813 128.418 38.3514 128.235 37.0494L131.954 36.854C132.067 37.4045 132.339 37.8247 132.771 38.1147C133.203 38.3988 133.757 38.5408 134.431 38.5408C135.094 38.5408 135.627 38.4136 136.029 38.1591C136.438 37.8987 136.645 37.5643 136.651 37.1559C136.645 36.8126 136.5 36.5315 136.216 36.3125C135.932 36.0876 135.494 35.916 134.902 35.7976L132.54 35.3271C131.209 35.0607 130.217 34.5991 129.566 33.9421C128.921 33.2852 128.599 32.4477 128.599 31.4297C128.599 30.5537 128.835 29.7991 129.309 29.1658C129.788 28.5326 130.46 28.0443 131.324 27.701C132.194 27.3577 133.212 27.1861 134.378 27.1861C136.1 27.1861 137.456 27.5501 138.444 28.2781C139.438 29.006 140.018 29.9974 140.184 31.2521ZM147.899 40.0146V27.4435H151.077V40.0146H147.899ZM143.203 35.3182V32.1399H155.774V35.3182H143.203Z" fill="white"/>
<path d="M32.7614 54L31.1705 48.1818H31.8864L33.1023 52.9205H33.1591L34.3977 48.1818H35.1932L36.4318 52.9205H36.4886L37.7045 48.1818H38.4205L36.8295 54H36.1023L34.8182 49.3636H34.7727L33.4886 54H32.7614ZM39.2983 54V48.1818H42.8097V48.8068H40.0028V50.7727H42.6278V51.3977H40.0028V53.375H42.8551V54H39.2983ZM50.1477 48.1818H50.8523V52.0341C50.8523 52.4318 50.7585 52.7869 50.571 53.0994C50.3854 53.41 50.1231 53.6553 49.7841 53.8352C49.4451 54.0133 49.0473 54.1023 48.5909 54.1023C48.1345 54.1023 47.7367 54.0133 47.3977 53.8352C47.0587 53.6553 46.7955 53.41 46.608 53.0994C46.4223 52.7869 46.3295 52.4318 46.3295 52.0341V48.1818H47.0341V51.9773C47.0341 52.2614 47.0966 52.5142 47.2216 52.7358C47.3466 52.9555 47.5246 53.1288 47.7557 53.2557C47.9886 53.3807 48.267 53.4432 48.5909 53.4432C48.9148 53.4432 49.1932 53.3807 49.4261 53.2557C49.6591 53.1288 49.8371 52.9555 49.9602 52.7358C50.0852 52.5142 50.1477 52.2614 50.1477 51.9773V48.1818ZM56.8729 48.1818V54H56.1911L53.0206 49.4318H52.9638V54H52.2592V48.1818H52.9411L56.1229 52.7614H56.1797V48.1818H56.8729ZM58.9872 48.1818V54H58.2827V48.1818H58.9872ZM60.0817 48.8068V48.1818H64.4453V48.8068H62.6158V54H61.9112V48.8068H60.0817ZM65.5327 54V48.1818H69.044V48.8068H66.2372V50.7727H68.8622V51.3977H66.2372V53.375H69.0895V54H65.5327ZM75.7457 49.6364C75.7116 49.3485 75.5734 49.125 75.331 48.9659C75.0885 48.8068 74.7912 48.7273 74.4389 48.7273C74.1813 48.7273 73.956 48.7689 73.7628 48.8523C73.5715 48.9356 73.4219 49.0502 73.3139 49.196C73.2079 49.3419 73.1548 49.5076 73.1548 49.6932C73.1548 49.8485 73.1918 49.982 73.2656 50.0938C73.3414 50.2036 73.438 50.2955 73.5554 50.3693C73.6728 50.4413 73.7959 50.5009 73.9247 50.5483C74.0535 50.5937 74.1719 50.6307 74.2798 50.6591L74.8707 50.8182C75.0223 50.858 75.1908 50.9129 75.3764 50.983C75.5639 51.053 75.7429 51.1487 75.9134 51.2699C76.0857 51.3892 76.2277 51.5426 76.3395 51.7301C76.4512 51.9176 76.5071 52.1477 76.5071 52.4205C76.5071 52.7348 76.4247 53.0189 76.2599 53.2727C76.0971 53.5265 75.8584 53.7282 75.544 53.8778C75.2315 54.0275 74.8518 54.1023 74.4048 54.1023C73.9882 54.1023 73.6274 54.035 73.3224 53.9006C73.0194 53.7661 72.7808 53.5786 72.6065 53.3381C72.4342 53.0975 72.3366 52.8182 72.3139 52.5H73.0412C73.0601 52.7197 73.134 52.9015 73.2628 53.0455C73.3935 53.1875 73.5582 53.2936 73.7571 53.3636C73.9579 53.4318 74.1738 53.4659 74.4048 53.4659C74.6738 53.4659 74.9152 53.4223 75.1293 53.3352C75.3433 53.2462 75.5128 53.1231 75.6378 52.9659C75.7628 52.8068 75.8253 52.6212 75.8253 52.4091C75.8253 52.2159 75.7713 52.0587 75.6634 51.9375C75.5554 51.8163 75.4134 51.7178 75.2372 51.642C75.0611 51.5663 74.8707 51.5 74.6662 51.4432L73.9503 51.2386C73.4957 51.108 73.1359 50.9214 72.8707 50.679C72.6056 50.4366 72.473 50.1193 72.473 49.7273C72.473 49.4015 72.5611 49.1174 72.7372 48.875C72.9152 48.6307 73.1539 48.4413 73.4531 48.3068C73.7543 48.1705 74.0904 48.1023 74.4616 48.1023C74.8366 48.1023 75.17 48.1695 75.4616 48.304C75.7533 48.4366 75.9844 48.6184 76.1548 48.8494C76.3272 49.0805 76.4181 49.3428 76.4276 49.6364H75.7457ZM77.6655 54V48.1818H81.1768V48.8068H78.37V50.7727H80.995V51.3977H78.37V53.375H81.2223V54H77.6655ZM82.4467 54V48.1818H84.4126C84.8672 48.1818 85.2403 48.2595 85.532 48.4148C85.8236 48.5682 86.0395 48.7794 86.1797 49.0483C86.3198 49.3172 86.3899 49.6231 86.3899 49.9659C86.3899 50.3087 86.3198 50.6127 86.1797 50.8778C86.0395 51.143 85.8246 51.3513 85.5348 51.5028C85.245 51.6525 84.8748 51.7273 84.424 51.7273H82.8331V51.0909H84.4013C84.7119 51.0909 84.9619 51.0455 85.1513 50.9545C85.3426 50.8636 85.4808 50.7348 85.5661 50.5682C85.6532 50.3996 85.6967 50.1989 85.6967 49.9659C85.6967 49.733 85.6532 49.5294 85.5661 49.3551C85.4789 49.1809 85.3397 49.0464 85.1484 48.9517C84.9571 48.8551 84.7043 48.8068 84.3899 48.8068H83.1513V54H82.4467ZM85.1854 51.3864L86.6172 54H85.799L84.3899 51.3864H85.1854ZM87.6697 48.1818L89.397 53.0795H89.4652L91.1925 48.1818H91.9311L89.7947 54H89.0675L86.9311 48.1818H87.6697ZM93.5419 48.1818V54H92.8374V48.1818H93.5419ZM99.6364 50H98.9318C98.8902 49.7973 98.8172 49.6193 98.7131 49.4659C98.6108 49.3125 98.4858 49.1837 98.3381 49.0795C98.1922 48.9735 98.0303 48.8939 97.8523 48.8409C97.6742 48.7879 97.4886 48.7614 97.2955 48.7614C96.9432 48.7614 96.6241 48.8504 96.3381 49.0284C96.054 49.2064 95.8277 49.4688 95.6591 49.8153C95.4924 50.1619 95.4091 50.5871 95.4091 51.0909C95.4091 51.5947 95.4924 52.0199 95.6591 52.3665C95.8277 52.7131 96.054 52.9754 96.3381 53.1534C96.6241 53.3314 96.9432 53.4205 97.2955 53.4205C97.4886 53.4205 97.6742 53.3939 97.8523 53.3409C98.0303 53.2879 98.1922 53.2093 98.3381 53.1051C98.4858 52.9991 98.6108 52.8693 98.7131 52.7159C98.8172 52.5606 98.8902 52.3826 98.9318 52.1818H99.6364C99.5833 52.4792 99.4867 52.7453 99.3466 52.9801C99.2064 53.215 99.0322 53.4148 98.8239 53.5795C98.6155 53.7424 98.3816 53.8665 98.1222 53.9517C97.8646 54.0369 97.589 54.0795 97.2955 54.0795C96.7992 54.0795 96.358 53.9583 95.9716 53.7159C95.5852 53.4735 95.2813 53.1288 95.0597 52.6818C94.8381 52.2348 94.7273 51.7045 94.7273 51.0909C94.7273 50.4773 94.8381 49.947 95.0597 49.5C95.2813 49.053 95.5852 48.7083 95.9716 48.4659C96.358 48.2235 96.7992 48.1023 97.2955 48.1023C97.589 48.1023 97.8646 48.1449 98.1222 48.2301C98.3816 48.3153 98.6155 48.4403 98.8239 48.6051C99.0322 48.768 99.2064 48.9669 99.3466 49.2017C99.4867 49.4347 99.5833 49.7008 99.6364 50ZM100.775 54V48.1818H104.286V48.8068H101.479V50.7727H104.104V51.3977H101.479V53.375H104.332V54H100.775ZM108.045 54H107.306L109.442 48.1818H110.17L112.306 54H111.567L109.829 49.1023H109.783L108.045 54ZM108.317 51.7273H111.295V52.3523H108.317V51.7273ZM117.826 48.1818V54H117.144L113.974 49.4318H113.917V54H113.212V48.1818H113.894L117.076 52.7614H117.133V48.1818H117.826ZM121.031 54H119.236V48.1818H121.111C121.675 48.1818 122.158 48.2983 122.56 48.5312C122.961 48.7623 123.269 49.0947 123.483 49.5284C123.697 49.9602 123.804 50.4773 123.804 51.0795C123.804 51.6856 123.696 52.2074 123.48 52.6449C123.264 53.0805 122.95 53.4157 122.537 53.6506C122.124 53.8835 121.622 54 121.031 54ZM119.94 53.375H120.986C121.467 53.375 121.866 53.2822 122.182 53.0966C122.498 52.911 122.734 52.6468 122.889 52.304C123.045 51.9612 123.122 51.553 123.122 51.0795C123.122 50.6098 123.045 50.2055 122.892 49.8665C122.739 49.5256 122.509 49.2642 122.205 49.0824C121.9 48.8987 121.52 48.8068 121.065 48.8068H119.94V53.375ZM130.418 49.6364C130.384 49.3485 130.245 49.125 130.003 48.9659C129.76 48.8068 129.463 48.7273 129.111 48.7273C128.853 48.7273 128.628 48.7689 128.435 48.8523C128.243 48.9356 128.094 49.0502 127.986 49.196C127.88 49.3419 127.827 49.5076 127.827 49.6932C127.827 49.8485 127.864 49.982 127.938 50.0938C128.013 50.2036 128.11 50.2955 128.227 50.3693C128.345 50.4413 128.468 50.5009 128.597 50.5483C128.725 50.5937 128.844 50.6307 128.952 50.6591L129.543 50.8182C129.694 50.858 129.863 50.9129 130.048 50.983C130.236 51.053 130.415 51.1487 130.585 51.2699C130.758 51.3892 130.9 51.5426 131.011 51.7301C131.123 51.9176 131.179 52.1477 131.179 52.4205C131.179 52.7348 131.097 53.0189 130.932 53.2727C130.769 53.5265 130.53 53.7282 130.216 53.8778C129.903 54.0275 129.524 54.1023 129.077 54.1023C128.66 54.1023 128.299 54.035 127.994 53.9006C127.691 53.7661 127.453 53.5786 127.278 53.3381C127.106 53.0975 127.009 52.8182 126.986 52.5H127.713C127.732 52.7197 127.806 52.9015 127.935 53.0455C128.065 53.1875 128.23 53.2936 128.429 53.3636C128.63 53.4318 128.846 53.4659 129.077 53.4659C129.346 53.4659 129.587 53.4223 129.801 53.3352C130.015 53.2462 130.185 53.1231 130.31 52.9659C130.435 52.8068 130.497 52.6212 130.497 52.4091C130.497 52.2159 130.443 52.0587 130.335 51.9375C130.227 51.8163 130.085 51.7178 129.909 51.642C129.733 51.5663 129.543 51.5 129.338 51.4432L128.622 51.2386C128.168 51.108 127.808 50.9214 127.543 50.679C127.277 50.4366 127.145 50.1193 127.145 49.7273C127.145 49.4015 127.233 49.1174 127.409 48.875C127.587 48.6307 127.826 48.4413 128.125 48.3068C128.426 48.1705 128.762 48.1023 129.134 48.1023C129.509 48.1023 129.842 48.1695 130.134 48.304C130.425 48.4366 130.656 48.6184 130.827 48.8494C130.999 49.0805 131.09 49.3428 131.099 49.6364H130.418ZM137.019 50H136.315C136.273 49.7973 136.2 49.6193 136.096 49.4659C135.994 49.3125 135.869 49.1837 135.721 49.0795C135.575 48.9735 135.413 48.8939 135.235 48.8409C135.057 48.7879 134.871 48.7614 134.678 48.7614C134.326 48.7614 134.007 48.8504 133.721 49.0284C133.437 49.2064 133.21 49.4688 133.042 49.8153C132.875 50.1619 132.792 50.5871 132.792 51.0909C132.792 51.5947 132.875 52.0199 133.042 52.3665C133.21 52.7131 133.437 52.9754 133.721 53.1534C134.007 53.3314 134.326 53.4205 134.678 53.4205C134.871 53.4205 135.057 53.3939 135.235 53.3409C135.413 53.2879 135.575 53.2093 135.721 53.1051C135.869 52.9991 135.994 52.8693 136.096 52.7159C136.2 52.5606 136.273 52.3826 136.315 52.1818H137.019C136.966 52.4792 136.87 52.7453 136.729 52.9801C136.589 53.215 136.415 53.4148 136.207 53.5795C135.998 53.7424 135.764 53.8665 135.505 53.9517C135.247 54.0369 134.972 54.0795 134.678 54.0795C134.182 54.0795 133.741 53.9583 133.354 53.7159C132.968 53.4735 132.664 53.1288 132.442 52.6818C132.221 52.2348 132.11 51.7045 132.11 51.0909C132.11 50.4773 132.221 49.947 132.442 49.5C132.664 49.053 132.968 48.7083 133.354 48.4659C133.741 48.2235 134.182 48.1023 134.678 48.1023C134.972 48.1023 135.247 48.1449 135.505 48.2301C135.764 48.3153 135.998 48.4403 136.207 48.6051C136.415 48.768 136.589 48.9669 136.729 49.2017C136.87 49.4347 136.966 49.7008 137.019 50ZM138.862 48.1818V54H138.158V48.1818H138.862ZM144.888 48.1818V54H144.207L141.036 49.4318H140.979V54H140.275V48.1818H140.957L144.138 52.7614H144.195V48.1818H144.888ZM150.98 50H150.276C150.234 49.7973 150.161 49.6193 150.057 49.4659C149.955 49.3125 149.83 49.1837 149.682 49.0795C149.536 48.9735 149.374 48.8939 149.196 48.8409C149.018 48.7879 148.832 48.7614 148.639 48.7614C148.287 48.7614 147.968 48.8504 147.682 49.0284C147.398 49.2064 147.171 49.4688 147.003 49.8153C146.836 50.1619 146.753 50.5871 146.753 51.0909C146.753 51.5947 146.836 52.0199 147.003 52.3665C147.171 52.7131 147.398 52.9754 147.682 53.1534C147.968 53.3314 148.287 53.4205 148.639 53.4205C148.832 53.4205 149.018 53.3939 149.196 53.3409C149.374 53.2879 149.536 53.2093 149.682 53.1051C149.83 52.9991 149.955 52.8693 150.057 52.7159C150.161 52.5606 150.234 52.3826 150.276 52.1818H150.98C150.927 52.4792 150.83 52.7453 150.69 52.9801C150.55 53.215 150.376 53.4148 150.168 53.5795C149.959 53.7424 149.725 53.8665 149.466 53.9517C149.208 54.0369 148.933 54.0795 148.639 54.0795C148.143 54.0795 147.702 53.9583 147.315 53.7159C146.929 53.4735 146.625 53.1288 146.403 52.6818C146.182 52.2348 146.071 51.7045 146.071 51.0909C146.071 50.4773 146.182 49.947 146.403 49.5C146.625 49.053 146.929 48.7083 147.315 48.4659C147.702 48.2235 148.143 48.1023 148.639 48.1023C148.933 48.1023 149.208 48.1449 149.466 48.2301C149.725 48.3153 149.959 48.4403 150.168 48.6051C150.376 48.768 150.55 48.9669 150.69 49.2017C150.83 49.4347 150.927 49.7008 150.98 50ZM152.119 54V48.1818H155.63V48.8068H152.823V50.7727H155.448V51.3977H152.823V53.375H155.675V54H152.119ZM33.7159 64.0795C33.2784 64.0795 32.8911 63.9669 32.554 63.7415C32.2169 63.5142 31.9527 63.2017 31.7614 62.804C31.572 62.4062 31.4773 61.9489 31.4773 61.4318V60.8864C31.4773 60.3428 31.5758 59.8617 31.7727 59.4432C31.9716 59.0246 32.2453 58.697 32.5938 58.4602C32.9422 58.2216 33.3428 58.1023 33.7955 58.1023C34.1894 58.1023 34.5398 58.1799 34.8466 58.3352C35.1534 58.4886 35.3977 58.7093 35.5795 58.9972C35.7633 59.2831 35.8655 59.625 35.8864 60.0227H35.1477C35.1288 59.7614 35.0549 59.5369 34.9261 59.3494C34.7973 59.16 34.6335 59.0152 34.4347 58.9148C34.2377 58.8125 34.0246 58.7614 33.7955 58.7614C33.4811 58.7614 33.2017 58.8523 32.9574 59.0341C32.715 59.214 32.5246 59.464 32.3864 59.7841C32.25 60.1042 32.1818 60.4716 32.1818 60.8864V61.4318C32.1818 61.822 32.2472 62.1676 32.3778 62.4688C32.5085 62.7699 32.6894 63.0057 32.9205 63.1761C33.1515 63.3466 33.4167 63.4318 33.7159 63.4318C33.9583 63.4318 34.1837 63.3816 34.392 63.2812C34.6023 63.1809 34.7756 63.0369 34.9119 62.8494C35.0483 62.6619 35.1269 62.4394 35.1477 62.1818H35.8864C35.8636 62.5739 35.7566 62.9119 35.5653 63.196C35.3759 63.4801 35.1222 63.6989 34.804 63.8523C34.4858 64.0038 34.1231 64.0795 33.7159 64.0795ZM32.0682 61.4545V60.8068H34.4886V61.4545H32.0682ZM36.5249 65.4091V63.375H36.8999C37.0286 63.2576 37.1499 63.0919 37.2635 62.8778C37.379 62.6619 37.4766 62.3741 37.5561 62.0142C37.6375 61.6525 37.6915 61.1932 37.718 60.6364L37.843 58.1818H41.2976V63.375H41.968V65.3977H41.2976V64H37.1953V65.4091H36.5249ZM37.7408 63.375H40.6271V58.8068H38.4794L38.3885 60.6364C38.3658 61.0606 38.326 61.4451 38.2692 61.7898C38.2124 62.1326 38.1394 62.4366 38.0504 62.7017C37.9614 62.965 37.8582 63.1894 37.7408 63.375ZM43.0327 64V58.1818H43.7372V60.7727H46.8395V58.1818H47.544V64H46.8395V61.3977H43.7372V64H43.0327ZM49.1932 64H48.4545L50.5909 58.1818H51.3182L53.4545 64H52.7159L50.9773 59.1023H50.9318L49.1932 64ZM49.4659 61.7273H52.4432V62.3523H49.4659V61.7273ZM56.0987 64.0795C55.6612 64.0795 55.2739 63.9669 54.9368 63.7415C54.5997 63.5142 54.3355 63.2017 54.1442 62.804C53.9548 62.4062 53.8601 61.9489 53.8601 61.4318V60.8864C53.8601 60.3428 53.9586 59.8617 54.1555 59.4432C54.3544 59.0246 54.6281 58.697 54.9766 58.4602C55.325 58.2216 55.7256 58.1023 56.1783 58.1023C56.5722 58.1023 56.9226 58.1799 57.2294 58.3352C57.5362 58.4886 57.7805 58.7093 57.9624 58.9972C58.1461 59.2831 58.2483 59.625 58.2692 60.0227H57.5305C57.5116 59.7614 57.4377 59.5369 57.3089 59.3494C57.1802 59.16 57.0163 59.0152 56.8175 58.9148C56.6205 58.8125 56.4074 58.7614 56.1783 58.7614C55.8639 58.7614 55.5845 58.8523 55.3402 59.0341C55.0978 59.214 54.9074 59.464 54.7692 59.7841C54.6328 60.1042 54.5646 60.4716 54.5646 60.8864V61.4318C54.5646 61.822 54.63 62.1676 54.7607 62.4688C54.8913 62.7699 55.0722 63.0057 55.3033 63.1761C55.5343 63.3466 55.7995 63.4318 56.0987 63.4318C56.3411 63.4318 56.5665 63.3816 56.7749 63.2812C56.9851 63.1809 57.1584 63.0369 57.2947 62.8494C57.4311 62.6619 57.5097 62.4394 57.5305 62.1818H58.2692C58.2464 62.5739 58.1394 62.9119 57.9482 63.196C57.7588 63.4801 57.505 63.6989 57.1868 63.8523C56.8686 64.0038 56.5059 64.0795 56.0987 64.0795ZM54.451 61.4545V60.8068H56.8714V61.4545H54.451ZM59.4077 58.1818H60.2486L62.2259 63.0114H62.294L64.2713 58.1818H65.1122V64H64.4531V59.5795H64.3963L62.5781 64H61.9418L60.1236 59.5795H60.0668V64H59.4077V58.1818ZM71.4339 61.0909C71.4339 61.7045 71.3232 62.2348 71.1016 62.6818C70.88 63.1288 70.576 63.4735 70.1896 63.7159C69.8033 63.9583 69.362 64.0795 68.8658 64.0795C68.3696 64.0795 67.9283 63.9583 67.5419 63.7159C67.1555 63.4735 66.8516 63.1288 66.63 62.6818C66.4084 62.2348 66.2976 61.7045 66.2976 61.0909C66.2976 60.4773 66.4084 59.947 66.63 59.5C66.8516 59.053 67.1555 58.7083 67.5419 58.4659C67.9283 58.2235 68.3696 58.1023 68.8658 58.1023C69.362 58.1023 69.8033 58.2235 70.1896 58.4659C70.576 58.7083 70.88 59.053 71.1016 59.5C71.3232 59.947 71.4339 60.4773 71.4339 61.0909ZM70.7521 61.0909C70.7521 60.5871 70.6679 60.1619 70.4993 59.8153C70.3326 59.4688 70.1063 59.2064 69.8203 59.0284C69.5362 58.8504 69.218 58.7614 68.8658 58.7614C68.5135 58.7614 68.1944 58.8504 67.9084 59.0284C67.6243 59.2064 67.398 59.4688 67.2294 59.8153C67.0627 60.1619 66.9794 60.5871 66.9794 61.0909C66.9794 61.5947 67.0627 62.0199 67.2294 62.3665C67.398 62.7131 67.6243 62.9754 67.9084 63.1534C68.1944 63.3314 68.5135 63.4205 68.8658 63.4205C69.218 63.4205 69.5362 63.3314 69.8203 63.1534C70.1063 62.9754 70.3326 62.7131 70.4993 62.3665C70.6679 62.0199 70.7521 61.5947 70.7521 61.0909ZM79.5504 60H78.8459C78.8042 59.7973 78.7313 59.6193 78.6271 59.4659C78.5249 59.3125 78.3999 59.1837 78.2521 59.0795C78.1063 58.9735 77.9444 58.8939 77.7663 58.8409C77.5883 58.7879 77.4027 58.7614 77.2095 58.7614C76.8572 58.7614 76.5381 58.8504 76.2521 59.0284C75.968 59.2064 75.7417 59.4688 75.5732 59.8153C75.4065 60.1619 75.3232 60.5871 75.3232 61.0909C75.3232 61.5947 75.4065 62.0199 75.5732 62.3665C75.7417 62.7131 75.968 62.9754 76.2521 63.1534C76.5381 63.3314 76.8572 63.4205 77.2095 63.4205C77.4027 63.4205 77.5883 63.3939 77.7663 63.3409C77.9444 63.2879 78.1063 63.2093 78.2521 63.1051C78.3999 62.9991 78.5249 62.8693 78.6271 62.7159C78.7313 62.5606 78.8042 62.3826 78.8459 62.1818H79.5504C79.4974 62.4792 79.4008 62.7453 79.2607 62.9801C79.1205 63.215 78.9463 63.4148 78.7379 63.5795C78.5296 63.7424 78.2957 63.8665 78.0362 63.9517C77.7786 64.0369 77.5031 64.0795 77.2095 64.0795C76.7133 64.0795 76.272 63.9583 75.8857 63.7159C75.4993 63.4735 75.1953 63.1288 74.9737 62.6818C74.7521 62.2348 74.6413 61.7045 74.6413 61.0909C74.6413 60.4773 74.7521 59.947 74.9737 59.5C75.1953 59.053 75.4993 58.7083 75.8857 58.4659C76.272 58.2235 76.7133 58.1023 77.2095 58.1023C77.5031 58.1023 77.7786 58.1449 78.0362 58.2301C78.2957 58.3153 78.5296 58.4403 78.7379 58.6051C78.9463 58.768 79.1205 58.9669 79.2607 59.2017C79.4008 59.4347 79.4974 59.7008 79.5504 60ZM80.6889 64V58.1818H84.2003V58.8068H81.3935V60.7727H84.0185V61.3977H81.3935V63.375H84.2457V64H80.6889ZM85.4702 64V58.1818H87.4361C87.8925 58.1818 88.2656 58.2642 88.5554 58.429C88.8471 58.5919 89.063 58.8125 89.2031 59.0909C89.3433 59.3693 89.4134 59.6799 89.4134 60.0227C89.4134 60.3655 89.3433 60.6771 89.2031 60.9574C89.0649 61.2377 88.8509 61.4612 88.5611 61.6278C88.2713 61.7926 87.9001 61.875 87.4474 61.875H86.0384V61.25H87.4247C87.7372 61.25 87.9882 61.196 88.1776 61.0881C88.367 60.9801 88.5043 60.8343 88.5895 60.6506C88.6766 60.465 88.7202 60.2557 88.7202 60.0227C88.7202 59.7898 88.6766 59.5814 88.5895 59.3977C88.5043 59.214 88.366 59.0701 88.1747 58.9659C87.9834 58.8598 87.7296 58.8068 87.4134 58.8068H86.1747V64H85.4702ZM90.5483 64V58.1818H92.5824C92.9877 58.1818 93.322 58.2519 93.5852 58.392C93.8485 58.5303 94.0445 58.7169 94.1733 58.9517C94.3021 59.1847 94.3665 59.4432 94.3665 59.7273C94.3665 59.9773 94.322 60.1837 94.233 60.3466C94.1458 60.5095 94.0303 60.6383 93.8864 60.733C93.7443 60.8277 93.59 60.8977 93.4233 60.9432V61C93.6013 61.0114 93.7803 61.0739 93.9602 61.1875C94.1402 61.3011 94.2907 61.464 94.4119 61.6761C94.5331 61.8883 94.5938 62.1477 94.5938 62.4545C94.5938 62.7462 94.5275 63.0085 94.3949 63.2415C94.2623 63.4744 94.053 63.6591 93.767 63.7955C93.4811 63.9318 93.1089 64 92.6506 64H90.5483ZM91.2528 63.375H92.6506C93.1108 63.375 93.4375 63.286 93.6307 63.108C93.8258 62.928 93.9233 62.7102 93.9233 62.4545C93.9233 62.2576 93.8731 62.0758 93.7727 61.9091C93.6723 61.7405 93.5294 61.6061 93.3438 61.5057C93.1581 61.4034 92.9384 61.3523 92.6847 61.3523H91.2528V63.375ZM91.2528 60.7386H92.5597C92.7718 60.7386 92.9631 60.697 93.1335 60.6136C93.3059 60.5303 93.4422 60.4129 93.5426 60.2614C93.6449 60.1098 93.696 59.9318 93.696 59.7273C93.696 59.4716 93.607 59.2547 93.429 59.0767C93.2509 58.8968 92.9688 58.8068 92.5824 58.8068H91.2528V60.7386ZM96.456 58.1818V64H95.7514V58.1818H96.456ZM102.55 60H101.846C101.804 59.7973 101.731 59.6193 101.627 59.4659C101.525 59.3125 101.4 59.1837 101.252 59.0795C101.106 58.9735 100.944 58.8939 100.766 58.8409C100.588 58.7879 100.403 58.7614 100.21 58.7614C99.8572 58.7614 99.5381 58.8504 99.2521 59.0284C98.968 59.2064 98.7417 59.4688 98.5732 59.8153C98.4065 60.1619 98.3232 60.5871 98.3232 61.0909C98.3232 61.5947 98.4065 62.0199 98.5732 62.3665C98.7417 62.7131 98.968 62.9754 99.2521 63.1534C99.5381 63.3314 99.8572 63.4205 100.21 63.4205C100.403 63.4205 100.588 63.3939 100.766 63.3409C100.944 63.2879 101.106 63.2093 101.252 63.1051C101.4 62.9991 101.525 62.8693 101.627 62.7159C101.731 62.5606 101.804 62.3826 101.846 62.1818H102.55C102.497 62.4792 102.401 62.7453 102.261 62.9801C102.121 63.215 101.946 63.4148 101.738 63.5795C101.53 63.7424 101.296 63.8665 101.036 63.9517C100.779 64.0369 100.503 64.0795 100.21 64.0795C99.7133 64.0795 99.272 63.9583 98.8857 63.7159C98.4993 63.4735 98.1953 63.1288 97.9737 62.6818C97.7521 62.2348 97.6413 61.7045 97.6413 61.0909C97.6413 60.4773 97.7521 59.947 97.9737 59.5C98.1953 59.053 98.4993 58.7083 98.8857 58.4659C99.272 58.2235 99.7133 58.1023 100.21 58.1023C100.503 58.1023 100.779 58.1449 101.036 58.2301C101.296 58.3153 101.53 58.4403 101.738 58.6051C101.946 58.768 102.121 58.9669 102.261 59.2017C102.401 59.4347 102.497 59.7008 102.55 60ZM105.621 58.8068V58.1818H109.984V58.8068H108.155V64H107.45V58.8068H105.621ZM110.631 64H109.892L112.028 58.1818H112.756L114.892 64H114.153L112.415 59.1023H112.369L110.631 64ZM110.903 61.7273H113.881V62.3523H110.903V61.7273ZM122.957 61.0909C122.957 61.7045 122.847 62.2348 122.625 62.6818C122.403 63.1288 122.099 63.4735 121.713 63.7159C121.327 63.9583 120.885 64.0795 120.389 64.0795C119.893 64.0795 119.452 63.9583 119.065 63.7159C118.679 63.4735 118.375 63.1288 118.153 62.6818C117.932 62.2348 117.821 61.7045 117.821 61.0909C117.821 60.4773 117.932 59.947 118.153 59.5C118.375 59.053 118.679 58.7083 119.065 58.4659C119.452 58.2235 119.893 58.1023 120.389 58.1023C120.885 58.1023 121.327 58.2235 121.713 58.4659C122.099 58.7083 122.403 59.053 122.625 59.5C122.847 59.947 122.957 60.4773 122.957 61.0909ZM122.276 61.0909C122.276 60.5871 122.191 60.1619 122.023 59.8153C121.856 59.4688 121.63 59.2064 121.344 59.0284C121.06 58.8504 120.741 58.7614 120.389 58.7614C120.037 58.7614 119.718 58.8504 119.432 59.0284C119.148 59.2064 118.921 59.4688 118.753 59.8153C118.586 60.1619 118.503 60.5871 118.503 61.0909C118.503 61.5947 118.586 62.0199 118.753 62.3665C118.921 62.7131 119.148 62.9754 119.432 63.1534C119.718 63.3314 120.037 63.4205 120.389 63.4205C120.741 63.4205 121.06 63.3314 121.344 63.1534C121.63 62.9754 121.856 62.7131 122.023 62.3665C122.191 62.0199 122.276 61.5947 122.276 61.0909ZM128.824 60H128.119C128.078 59.7973 128.005 59.6193 127.901 59.4659C127.798 59.3125 127.673 59.1837 127.526 59.0795C127.38 58.9735 127.218 58.8939 127.04 58.8409C126.862 58.7879 126.676 58.7614 126.483 58.7614C126.131 58.7614 125.812 58.8504 125.526 59.0284C125.241 59.2064 125.015 59.4688 124.847 59.8153C124.68 60.1619 124.597 60.5871 124.597 61.0909C124.597 61.5947 124.68 62.0199 124.847 62.3665C125.015 62.7131 125.241 62.9754 125.526 63.1534C125.812 63.3314 126.131 63.4205 126.483 63.4205C126.676 63.4205 126.862 63.3939 127.04 63.3409C127.218 63.2879 127.38 63.2093 127.526 63.1051C127.673 62.9991 127.798 62.8693 127.901 62.7159C128.005 62.5606 128.078 62.3826 128.119 62.1818H128.824C128.771 62.4792 128.674 62.7453 128.534 62.9801C128.394 63.215 128.22 63.4148 128.011 63.5795C127.803 63.7424 127.569 63.8665 127.31 63.9517C127.052 64.0369 126.777 64.0795 126.483 64.0795C125.987 64.0795 125.545 63.9583 125.159 63.7159C124.773 63.4735 124.469 63.1288 124.247 62.6818C124.026 62.2348 123.915 61.7045 123.915 61.0909C123.915 60.4773 124.026 59.947 124.247 59.5C124.469 59.053 124.773 58.7083 125.159 58.4659C125.545 58.2235 125.987 58.1023 126.483 58.1023C126.777 58.1023 127.052 58.1449 127.31 58.2301C127.569 58.3153 127.803 58.4403 128.011 58.6051C128.22 58.768 128.394 58.9669 128.534 59.2017C128.674 59.4347 128.771 59.7008 128.824 60ZM129.962 64V58.1818H131.996C132.402 58.1818 132.736 58.2519 132.999 58.392C133.263 58.5303 133.459 58.7169 133.587 58.9517C133.716 59.1847 133.781 59.4432 133.781 59.7273C133.781 59.9773 133.736 60.1837 133.647 60.3466C133.56 60.5095 133.444 60.6383 133.3 60.733C133.158 60.8277 133.004 60.8977 132.837 60.9432V61C133.015 61.0114 133.194 61.0739 133.374 61.1875C133.554 61.3011 133.705 61.464 133.826 61.6761C133.947 61.8883 134.008 62.1477 134.008 62.4545C134.008 62.7462 133.942 63.0085 133.809 63.2415C133.676 63.4744 133.467 63.6591 133.181 63.7955C132.895 63.9318 132.523 64 132.065 64H129.962ZM130.667 63.375H132.065C132.525 63.375 132.852 63.286 133.045 63.108C133.24 62.928 133.337 62.7102 133.337 62.4545C133.337 62.2576 133.287 62.0758 133.187 61.9091C133.086 61.7405 132.943 61.6061 132.758 61.5057C132.572 61.4034 132.353 61.3523 132.099 61.3523H130.667V63.375ZM130.667 60.7386H131.974C132.186 60.7386 132.377 60.697 132.548 60.6136C132.72 60.5303 132.856 60.4129 132.957 60.2614C133.059 60.1098 133.11 59.9318 133.11 59.7273C133.11 59.4716 133.021 59.2547 132.843 59.0767C132.665 58.8968 132.383 58.8068 131.996 58.8068H130.667V60.7386ZM135.87 58.1818V64H135.165V58.1818H135.87ZM136.964 58.8068V58.1818H141.328V58.8068H139.499V64H138.794V58.8068H136.964ZM142.722 64.0795V63.4205H143.086C143.226 63.4205 143.344 63.393 143.438 63.3381C143.535 63.2831 143.614 63.2121 143.677 63.125C143.741 63.0379 143.794 62.947 143.836 62.8523L143.927 62.6364L141.915 58.1818H142.677L144.279 61.7955L145.745 58.1818H146.495L144.484 63.0568C144.404 63.2386 144.313 63.4072 144.211 63.5625C144.111 63.7178 143.973 63.8428 143.799 63.9375C143.627 64.0322 143.393 64.0795 143.097 64.0795H142.722Z" fill="white"/>
</svg>
